<svg width="34" height="34" viewBox="0 0 34 34" fill="none" xmlns="http://www.w3.org/2000/svg">
<g id="Group 3">
<circle id="Ellipse 1" cx="17" cy="17" r="17" fill="#12E61B" fill-opacity="0.37"/>
<path id="Vector" d="M26.7235 13.1995C26.5588 11.1575 25.6172 9.17827 23.9381 7.74981C20.5799 4.89287 15.5198 5.30101 12.6628 8.65924C11.2344 10.3384 10.6214 12.4379 10.7874 14.4956C10.9534 16.5533 11.8949 18.5274 13.574 19.9559C16.9305 22.7918 21.9906 22.3833 24.8476 19.0251C26.276 17.346 26.8882 15.2415 26.7235 13.1995ZM25.4837 13.2892C25.6226 15.0109 25.1109 16.7851 23.8931 18.1936C21.4801 21.0299 17.2175 21.3737 14.3829 18.9817C11.5465 16.5688 11.2027 12.3062 13.6157 9.46984C16.0286 6.6335 20.2912 6.28969 23.1275 8.70264C24.5344 9.89946 25.3448 11.5674 25.4837 13.2892ZM24.2239 13.3908C24.107 11.942 23.4302 10.6227 22.2973 9.67852C21.2309 8.77125 19.9059 8.32872 18.515 8.3775C18.1564 8.3853 17.9055 8.68035 17.9133 9.039L17.915 9.05991C17.9421 9.39587 18.2372 9.64681 18.5748 9.64071C19.6491 9.59633 20.6716 9.95742 21.4867 10.6314C22.349 11.3649 22.8743 12.3795 22.9641 13.4924C22.9928 13.8493 23.2878 14.1003 23.6448 14.0715C24.0017 14.0427 24.2527 13.7477 24.2239 13.3908ZM16.0151 10.3966C16.0016 10.2295 15.9224 10.0746 15.7947 9.96603C15.667 9.85742 15.5015 9.80398 15.3344 9.81745C15.1673 9.83093 15.0125 9.91022 14.9039 10.0379C14.7953 10.1655 14.7418 10.3311 14.7553 10.4982C14.7688 10.6652 14.8481 10.8201 14.9757 10.9287C15.1034 11.0373 15.2689 11.0908 15.436 11.0773C15.6031 11.0638 15.7579 10.9845 15.8665 10.8569C15.9752 10.7292 16.0286 10.5636 16.0151 10.3966ZM13.3697 20.8309C13.3567 20.6708 13.281 20.5184 13.1457 20.4131C12.8734 20.1815 12.4746 20.2136 12.264 20.4842L11.7814 21.0515C11.5192 20.9458 11.2411 20.9048 10.9471 20.9285C10.4432 20.9691 9.97543 21.197 9.64727 21.5827L7.2185 24.4839C6.87104 24.8923 6.72115 25.3902 6.76011 25.8731C6.79906 26.3561 7.02691 26.8238 7.41435 27.173C8.20852 27.8486 9.4052 27.7521 10.0808 26.9579L12.5519 24.0537C12.88 23.668 13.03 23.1697 12.9893 22.6658C12.9656 22.3719 12.8805 22.1039 12.7342 21.8621L13.2168 21.2948C13.3326 21.1587 13.3826 20.991 13.3697 20.8309ZM11.7504 22.7657C11.7639 22.9337 11.7144 23.1067 11.5969 23.2218L9.1455 26.1034C8.91385 26.3757 8.51507 26.4078 8.26378 26.1745C7.99149 25.9429 7.95933 25.5441 8.19266 25.2928L10.6232 22.4129C10.739 22.2768 10.9017 22.2002 11.0697 22.1866C11.2377 22.1731 11.4106 22.2226 11.5258 22.3401C11.6619 22.456 11.7368 22.5978 11.7504 22.7657Z" fill="#FBFBFB"/>
</g>
</svg>
