<svg width="50" height="50" viewBox="0 0 50 50" fill="none" xmlns="http://www.w3.org/2000/svg">
<path d="M30.8 18.6V17.4C30.8 15.9678 30.2311 14.5943 29.2184 13.5816C28.2057 12.5689 26.8322 12 25.4 12C23.9678 12 22.5943 12.5689 21.5816 13.5816C20.5689 14.5943 20 15.9678 20 17.4V18.6C20 20.0322 20.5689 21.4057 21.5816 22.4184C22.5943 23.4311 23.9678 24 25.4 24C26.8322 24 28.2057 23.4311 29.2184 22.4184C30.2311 21.4057 30.8 20.0322 30.8 18.6ZM21.2 18.6V17.4C21.2 16.2861 21.6425 15.2178 22.4302 14.4302C23.2178 13.6425 24.2861 13.2 25.4 13.2C26.5139 13.2 27.5822 13.6425 28.3698 14.4302C29.1575 15.2178 29.6 16.2861 29.6 17.4V18.6C29.6 19.7139 29.1575 20.7822 28.3698 21.5698C27.5822 22.3575 26.5139 22.8 25.4 22.8C24.2861 22.8 23.2178 22.3575 22.4302 21.5698C21.6425 20.7822 21.2 19.7139 21.2 18.6Z" fill="url(#paint0_linear_3_25)"/>
<path d="M15.1575 31.429C15.1029 31.4908 15.061 31.5628 15.0341 31.6408C15.0073 31.7188 14.9961 31.8013 15.0012 31.8836C15.0063 31.9659 15.0275 32.0465 15.0637 32.1206C15.0999 32.1947 15.1503 32.261 15.2121 32.3156C15.2739 32.3702 15.3458 32.4121 15.4238 32.439C15.5018 32.4658 15.5844 32.477 15.6667 32.4719C15.749 32.4668 15.8295 32.4456 15.9036 32.4094C15.9778 32.3732 16.044 32.3228 16.0987 32.261C17.1766 31.046 18.4917 30.0644 19.9631 29.3766C21.4345 28.6887 23.0311 28.3092 24.6546 28.2613C26.2782 28.2134 27.8943 28.4982 29.4037 29.0981C30.9131 29.698 32.2838 30.6003 33.4315 31.7496C33.5928 31.9109 33.754 32.0841 33.909 32.2572C34.0205 32.3794 34.1757 32.4527 34.3409 32.461C34.506 32.4694 34.6679 32.4122 34.7911 32.3019C34.9143 32.1915 34.989 32.037 34.9989 31.8719C35.0088 31.7068 34.9531 31.5445 34.8439 31.4202C34.6732 31.232 34.495 31.0388 34.3181 30.8618C33.0495 29.5914 31.5345 28.5939 29.8661 27.9308C28.1977 27.2676 26.4113 26.9528 24.6168 27.0057C22.8222 27.0586 21.0574 27.4781 19.431 28.2383C17.8046 28.9986 16.3509 30.0836 15.1594 31.4265L15.1575 31.429Z" fill="url(#paint1_linear_3_25)"/>
<path d="M37.3047 38.8672C37.5088 38.868 37.705 38.7889 37.8516 38.6469C38.1219 38.3836 38.3852 38.1203 38.6484 37.8484C38.7245 37.7759 38.7852 37.6887 38.8268 37.5922C38.8684 37.4956 38.8901 37.3917 38.8906 37.2865C38.891 37.1814 38.8703 37.0772 38.8295 36.9803C38.7888 36.8834 38.7289 36.7957 38.6535 36.7224C38.578 36.6492 38.4886 36.592 38.3905 36.5541C38.2924 36.5163 38.1877 36.4986 38.0826 36.5022C37.9775 36.5058 37.8743 36.5306 37.779 36.575C37.6837 36.6195 37.5984 36.6827 37.5281 36.7609C37.275 37.0203 37.0227 37.2727 36.7625 37.525C36.6506 37.6335 36.5737 37.7729 36.5417 37.9254C36.5097 38.0779 36.524 38.2364 36.5828 38.3807C36.6416 38.525 36.7422 38.6485 36.8716 38.7351C37.0011 38.8218 37.1536 38.8678 37.3094 38.8672H37.3047Z" fill="url(#paint2_linear_3_25)"/>
<path d="M39.7196 35.3305C39.8937 35.4423 40.1052 35.4804 40.3075 35.4365C40.5098 35.3926 40.6864 35.2701 40.7985 35.0961C43.2871 31.2017 44.2497 26.5254 43.5017 21.9647C42.7536 17.4041 40.3475 13.2803 36.7452 10.385C33.1429 7.48974 28.5981 6.02687 23.9833 6.27721C19.3685 6.52755 15.0087 8.47345 11.7407 11.7414C8.47269 15.0094 6.52678 19.3692 6.27645 23.9841C6.02611 28.5989 7.48897 33.1436 10.3843 36.7459C13.2796 40.3483 17.4033 42.7544 21.964 43.5024C26.5247 44.2505 31.201 43.2878 35.0953 40.7992C35.27 40.6875 35.3932 40.511 35.4377 40.3086C35.4822 40.1061 35.4445 39.8942 35.3328 39.7195C35.2212 39.5449 35.0447 39.4217 34.8422 39.3772C34.6397 39.3326 34.4278 39.3703 34.2531 39.482C30.683 41.7621 26.3966 42.6434 22.2166 41.9569C18.0365 41.2703 14.2572 39.0643 11.6038 35.7622C8.95052 32.46 7.61013 28.2943 7.83987 24.0644C8.06961 19.8346 9.85331 15.8386 12.8487 12.8432C15.844 9.84782 19.8401 8.06413 24.0699 7.83438C28.2998 7.60464 32.4655 8.94503 35.7676 11.5983C39.0698 14.2517 41.2758 18.031 41.9624 22.2111C42.6489 26.3912 41.7676 30.6775 39.4875 34.2477C39.4314 34.3339 39.3929 34.4304 39.3742 34.5316C39.3555 34.6328 39.357 34.7367 39.3785 34.8373C39.4001 34.9379 39.4413 35.0333 39.4999 35.1179C39.5584 35.2025 39.633 35.2748 39.7196 35.3305Z" fill="url(#paint3_linear_3_25)"/>
<defs>
<linearGradient id="paint0_linear_3_25" x1="25.4" y1="42.0264" x2="25.4" y2="3.5736" gradientUnits="userSpaceOnUse">
<stop stop-color="white"/>
<stop offset="1" stop-color="white"/>
</linearGradient>
<linearGradient id="paint1_linear_3_25" x1="25.0007" y1="44.597" x2="25.0007" y2="4.38596" gradientUnits="userSpaceOnUse">
<stop stop-color="white"/>
<stop offset="1" stop-color="white"/>
</linearGradient>
<linearGradient id="paint2_linear_3_25" x1="37.6953" y1="50.0344" x2="37.6953" y2="-0.0343631" gradientUnits="userSpaceOnUse">
<stop stop-color="#12E61B" stop-opacity="0.37"/>
<stop offset="0.364" stop-color="#689811" stop-opacity="0.7456"/>
</linearGradient>
<linearGradient id="paint3_linear_3_25" x1="25" y1="50.0344" x2="25" y2="-0.0343837" gradientUnits="userSpaceOnUse">
<stop stop-color="#12E61B" stop-opacity="0.37"/>
</linearGradient>
</defs>
</svg>
